<?xml version="1.0" standalone="no"?>
<!DOCTYPE svg PUBLIC "-//W3C//DTD SVG 20010904//EN"
 "http://www.w3.org/TR/2001/REC-SVG-20010904/DTD/svg10.dtd">
<svg version="1.0" xmlns="http://www.w3.org/2000/svg"
 width="512.000000pt" height="512.000000pt" viewBox="0 0 512.000000 512.000000"
 preserveAspectRatio="xMidYMid meet">
<metadata>
Created by potrace 1.16, written by Peter Selinger 2001-2019
</metadata>
<g transform="translate(0.000000,512.000000) scale(0.100000,-0.100000)"
fill="#000000" stroke="none">
<path d="M3925 5102 c-144 -50 -247 -156 -291 -301 -20 -67 -18 -196 5 -263
112 -327 532 -411 759 -153 56 64 89 135 103 223 35 214 -89 421 -295 492 -76
26 -209 27 -281 2z"/>
<path d="M1354 4760 c-315 -112 -404 -515 -165 -743 285 -271 751 -73 751 317
0 128 -37 222 -121 311 -53 56 -120 97 -196 120 -67 21 -205 18 -269 -5z"/>
<path d="M3650 4040 c-162 -22 -292 -129 -339 -280 -13 -40 -46 -260 -86 -570
-36 -278 -68 -515 -71 -527 l-4 -23 -1403 0 c-1336 0 -1404 -1 -1442 -19 -50
-22 -96 -67 -121 -118 -29 -58 -26 -165 6 -223 33 -58 96 -105 160 -119 36 -8
509 -11 1567 -11 l1516 0 -7 -55 c-16 -137 -18 -232 -7 -253 7 -14 29 -27 56
-34 l45 -12 0 -801 0 -800 24 -50 c41 -90 119 -139 221 -139 102 0 180 49 221
139 l24 50 0 803 0 802 55 0 55 0 0 -807 c0 -762 1 -810 19 -848 40 -87 125
-139 226 -139 97 1 177 51 221 140 18 37 19 71 22 845 l3 806 36 9 c20 5 45
21 55 35 19 25 19 32 4 267 -9 132 -16 251 -16 264 0 19 9 27 50 41 106 38
187 132 211 246 11 52 7 94 -55 536 -37 264 -73 500 -78 525 -27 115 -126 237
-231 285 -29 14 -84 29 -122 35 -79 11 -731 11 -815 0z"/>
<path d="M1015 3726 c-71 -23 -127 -57 -180 -110 -61 -62 -99 -137 -114 -231
-15 -92 -71 -546 -71 -574 l0 -21 850 0 c468 0 850 2 850 5 0 40 -83 623 -94
657 -33 111 -111 198 -224 251 l-67 32 -455 2 c-348 2 -464 -1 -495 -11z"/>
<path d="M2185 1411 c-51 -23 -101 -79 -114 -128 -6 -21 -11 -64 -11 -95 l0
-58 -132 0 c-118 0 -139 -3 -183 -24 -59 -27 -100 -71 -115 -124 -8 -25 -10
-170 -8 -437 l3 -400 28 -42 c15 -24 46 -55 69 -70 l42 -28 681 0 682 0 41 29
c26 18 51 47 67 79 l25 51 0 406 c0 407 0 407 -23 451 -13 24 -43 58 -66 74
-42 30 -44 30 -197 33 l-154 4 0 61 c0 115 -35 182 -115 218 -35 16 -68 19
-260 19 -191 0 -225 -3 -260 -19z m469 -153 c10 -14 16 -44 16 -75 l0 -53
-230 0 -230 0 0 46 c0 45 13 82 34 96 6 4 97 8 203 8 187 0 192 -1 207 -22z"/>
</g>
</svg>
