<svg xmlns="http://www.w3.org/2000/svg" width="15" height="20" viewBox="0 0 15 20">
    <path fill="#4478B2" fill-rule="nonzero" d="M8.75 5.313V0H.937A.935.935 0 0 0 0 .938v18.125c0 .519.418.937.938.937h13.124c.52 0 .938-.418.938-.938V6.25H9.687a.94.94 0 0 1-.937-.938zm2.546 8.437H8.75v3.125c0 .346-.28.625-.625.625h-1.25a.625.625 0 0 1-.625-.625V13.75H3.704a.625.625 0 0 1-.44-1.068L7.03 8.943a.666.666 0 0 1 .94 0l3.766 3.739a.625.625 0 0 1-.44 1.068zm3.43-9.648L10.903.273A.937.937 0 0 0 10.238 0H10v5h5v-.238a.935.935 0 0 0-.273-.66z"/>
</svg>
